<svg width="1112" height="486" viewBox="0 0 1112 486" fill="none" xmlns="http://www.w3.org/2000/svg">
<g clip-path="url(#clip0_35_285)">
<path d="M1112 0H0V486H1112V0Z" fill="white"/>
<path d="M247.29 305.25C200.93 280.45 143.83 228.36 183.5 160.5C213.55 109.1 251.1 112.03 274.77 129.3C285.02 94.71 315.73 59.56 377 78.5C456 102.91 476.99 175.15 472.02 214.15C470.52 225.91 461.45 234.49 451.01 240.11L382.13 277.23C378.72 279.07 375.14 280.58 371.45 281.74L287.8 307.97C274.35 312.19 259.72 311.89 247.3 305.24L247.29 305.25Z" fill="#D6E4E7"/>
<path d="M776.73 293.06C823.84 271.55 885.88 230.09 845.2 160.5C815.15 109.1 777.6 112.03 753.93 129.3C743.68 94.71 712.97 59.56 651.7 78.5C572.7 102.91 551.71 175.15 556.68 214.15C558.18 225.91 567.25 234.49 577.69 240.11L643.24 275.43C648.84 278.45 654.89 280.57 661.15 281.73L743.11 296.8C754.47 298.89 766.23 297.85 776.73 293.05V293.06Z" fill="#D6E4E7"/>
<path d="M602.41 255.06C648.77 230.26 705.87 178.17 666.2 110.31C636.15 58.91 598.6 61.84 574.93 79.11C564.68 44.52 533.97 9.37003 472.7 28.31C393.7 52.72 372.71 124.96 377.68 163.97C379.18 175.73 388.25 184.31 398.69 189.93L467.57 227.05C470.98 228.89 474.56 230.4 478.25 231.55L561.9 257.79C575.35 262.01 589.98 261.71 602.4 255.06H602.41Z" fill="#D6E4E7"/>
<g filter="url(#filter0_i_35_285)">
<path d="M862.96 482.06C876.8 487.26 892.23 480.25 897.43 466.41C902.63 452.57 895.62 437.14 881.78 431.94L862.96 482.06ZM741.64 323.51C741.64 316.46 746.71 317.43 735.95 323.78C726.99 329.07 712.24 334.76 691.67 339.9C650.94 350.07 593.25 356.65 528.54 356.65V410.19C596.31 410.19 658.56 403.35 704.65 391.84C727.49 386.14 747.87 378.92 763.18 369.87C776.7 361.89 795.19 347.09 795.19 323.5H741.65L741.64 323.51ZM528.53 356.66C463.82 356.66 406.13 350.08 365.4 339.91C344.83 334.77 330.08 329.08 321.12 323.79C310.36 317.44 315.43 316.47 315.43 323.52H261.89C261.89 347.11 280.38 361.91 293.9 369.89C309.22 378.93 329.6 386.15 352.43 391.86C398.52 403.37 460.77 410.21 528.54 410.21V356.67L528.53 356.66ZM315.42 323.51C315.42 330.56 310.35 329.59 321.11 323.24C330.07 317.95 344.82 312.26 365.39 307.12C406.12 296.95 463.81 290.37 528.52 290.37V236.83C460.75 236.83 398.5 243.66 352.41 255.18C329.57 260.88 309.19 268.1 293.88 277.15C280.36 285.13 261.87 299.93 261.87 323.52H315.41L315.42 323.51ZM528.53 290.36C593.24 290.36 650.93 296.94 691.66 307.11C712.23 312.25 726.98 317.94 735.94 323.23C746.7 329.59 741.63 330.55 741.63 323.5H795.17C795.17 299.91 776.68 285.11 763.16 277.13C747.84 268.09 727.46 260.87 704.63 255.16C658.54 243.65 596.29 236.81 528.52 236.81V290.35L528.53 290.36ZM643.84 399.76L862.96 482.06L881.78 431.94L662.66 349.64L643.84 399.76Z" fill="#17A2B8"/>
</g>
<g filter="url(#filter1_f_35_285)">
<path d="M522.5 353C639.861 353 735 340.688 735 325.5C735 310.312 639.861 298 522.5 298C405.139 298 310 310.312 310 325.5C310 340.688 405.139 353 522.5 353Z" fill="#90B2B9"/>
</g>
<path d="M350.205 130.438C346.428 116.534 356.889 102.85 371.3 102.85H670.68C684.392 102.85 694.72 115.329 692.147 128.803L657.247 311.653C655.278 321.961 646.27 329.41 635.78 329.41H421C411.132 329.41 402.497 322.803 399.905 313.288C399.905 313.288 399.905 313.287 399.905 313.287L350.205 130.438Z" fill="white" stroke="url(#paint0_linear_35_285)" stroke-width="2"/>
<path d="M581.49 265.865C608.956 238.4 608.956 193.869 581.49 166.403C554.025 138.938 509.494 138.938 482.029 166.403C454.563 193.869 454.563 238.4 482.029 265.865C509.494 293.331 554.025 293.331 581.49 265.865Z" fill="#C57BFE"/>
<path d="M577.49 265.865C604.956 238.4 604.956 193.869 577.49 166.403C550.025 138.938 505.494 138.938 478.029 166.403C450.563 193.869 450.563 238.4 478.029 265.865C505.494 293.331 550.025 293.331 577.49 265.865Z" fill="#DDB0FF"/>
<path d="M500.51 186.24L555.89 241.62M555.89 186.24L500.51 241.62" stroke="white" stroke-width="24.61"/>
<path d="M469.74 128.22V86.02C469.74 53.98 495.72 28 527.76 28C559.8 28 585.78 53.98 585.78 86.02V128.22" stroke="#17A2B8" stroke-width="17.58" stroke-linecap="round"/>
</g>
<defs>
<filter id="filter0_i_35_285" x="261.87" y="217.81" width="637.277" height="265.967" filterUnits="userSpaceOnUse" color-interpolation-filters="sRGB">
<feFlood flood-opacity="0" result="BackgroundImageFix"/>
<feBlend mode="normal" in="SourceGraphic" in2="BackgroundImageFix" result="shape"/>
<feColorMatrix in="SourceAlpha" type="matrix" values="0 0 0 0 0 0 0 0 0 0 0 0 0 0 0 0 0 0 127 0" result="hardAlpha"/>
<feOffset dy="-19"/>
<feGaussianBlur stdDeviation="28.5"/>
<feComposite in2="hardAlpha" operator="arithmetic" k2="-1" k3="1"/>
<feColorMatrix type="matrix" values="0 0 0 0 0.188235 0 0 0 0 0.537255 0 0 0 0 0.666667 0 0 0 1 0"/>
<feBlend mode="normal" in2="shape" result="effect1_innerShadow_35_285"/>
</filter>
<filter id="filter1_f_35_285" x="250" y="238" width="545" height="175" filterUnits="userSpaceOnUse" color-interpolation-filters="sRGB">
<feFlood flood-opacity="0" result="BackgroundImageFix"/>
<feBlend mode="normal" in="SourceGraphic" in2="BackgroundImageFix" result="shape"/>
<feGaussianBlur stdDeviation="30" result="effect1_foregroundBlur_35_285"/>
</filter>
<linearGradient id="paint0_linear_35_285" x1="705" y1="146.5" x2="539.5" y2="127.5" gradientUnits="userSpaceOnUse">
<stop stop-color="#CBD9DC"/>
<stop offset="0.388517" stop-color="#D9E3E5"/>
<stop offset="1" stop-color="white" stop-opacity="0"/>
</linearGradient>
<clipPath id="clip0_35_285">
<rect width="1112" height="486" fill="white"/>
</clipPath>
</defs>
</svg>
